{
    "asset" : {
        "generator" : "Khronos glTF Blender I/O v1.6.16",
        "version" : "2.0"
    },
    "scene" : 0,
    "scenes" : [
        {
            "name" : "Scene",
            "nodes" : [
                0,
                1
            ]
        }
    ],
    "nodes" : [
        {
            "mesh" : 0,
            "name" : "Mesh8",
            "rotation" : [
                0.7071068286895752,
                0,
                0,
                0.7071067094802856
            ]
        },
        {
            "name" : "Sun",
            "rotation" : [
                0.07781893759965897,
                0.029276825487613678,
                -0.16536998748779297,
                0.9827207326889038
            ]
        }
    ],
    "materials" : [
        {
            "doubleSided" : true,
            "name" : "Body",
            "pbrMetallicRoughness" : {
                "baseColorFactor" : [
                    0.8000000715255737,
                    0.0022414608392864466,
                    0.0033226816449314356,
                    1
                ],
                "metallicFactor" : 0,
                "roughnessFactor" : 0.5
            }
        },
        {
            "doubleSided" : true,
            "name" : "Glass",
            "pbrMetallicRoughness" : {
                "baseColorFactor" : [
                    0.012701488099992275,
                    0.013020532205700874,
                    0.028385724872350693,
                    1
                ],
                "metallicFactor" : 0,
                "roughnessFactor" : 0.08909091353416443
            }
        },
        {
            "doubleSided" : true,
            "emissiveFactor" : [
                1,
                1,
                0.23487217724323273
            ],
            "name" : "Front Lights",
            "pbrMetallicRoughness" : {
                "baseColorFactor" : [
                    0.800000011920929,
                    0.800000011920929,
                    0.800000011920929,
                    1
                ],
                "metallicFactor" : 0,
                "roughnessFactor" : 0.5
            }
        },
        {
            "doubleSided" : true,
            "emissiveFactor" : [
                1,
                0.01926289638504386,
                0
            ],
            "name" : "Back Lights",
            "pbrMetallicRoughness" : {
                "baseColorFactor" : [
                    0.800000011920929,
                    0.800000011920929,
                    0.800000011920929,
                    1
                ],
                "metallicFactor" : 0,
                "roughnessFactor" : 0.5
            }
        },
        {
            "doubleSided" : true,
            "name" : "Black",
            "pbrMetallicRoughness" : {
                "baseColorFactor" : [
                    0.010213463567197323,
                    0.010213463567197323,
                    0.010213463567197323,
                    1
                ],
                "metallicFactor" : 0,
                "roughnessFactor" : 0.5
            }
        },
        {
            "doubleSided" : true,
            "name" : "FrontColor",
            "pbrMetallicRoughness" : {
                "metallicFactor" : 0,
                "roughnessFactor" : 0.5527864098548889
            }
        }
    ],
    "meshes" : [
        {
            "name" : "Mesh.007",
            "primitives" : [
                {
                    "attributes" : {
                        "POSITION" : 0,
                        "NORMAL" : 1,
                        "TEXCOORD_0" : 2
                    },
                    "indices" : 3,
                    "material" : 0
                },
                {
                    "attributes" : {
                        "POSITION" : 4,
                        "NORMAL" : 5,
                        "TEXCOORD_0" : 6
                    },
                    "indices" : 7,
                    "material" : 1
                },
                {
                    "attributes" : {
                        "POSITION" : 8,
                        "NORMAL" : 9,
                        "TEXCOORD_0" : 10
                    },
                    "indices" : 11,
                    "material" : 2
                },
                {
                    "attributes" : {
                        "POSITION" : 12,
                        "NORMAL" : 13,
                        "TEXCOORD_0" : 14
                    },
                    "indices" : 15,
                    "material" : 3
                },
                {
                    "attributes" : {
                        "POSITION" : 16,
                        "NORMAL" : 17,
                        "TEXCOORD_0" : 18
                    },
                    "indices" : 19,
                    "material" : 4
                },
                {
                    "attributes" : {
                        "POSITION" : 20,
                        "NORMAL" : 21,
                        "TEXCOORD_0" : 22
                    },
                    "indices" : 23,
                    "material" : 5
                }
            ]
        }
    ],
    "accessors" : [
        {
            "bufferView" : 0,
            "componentType" : 5126,
            "count" : 3000,
            "max" : [
                3.88031005859375,
                8.315472602844238,
                -1.0547629594802856
            ],
            "min" : [
                -3.88031005859375,
                -8.604525566101074,
                -7.122011184692383
            ],
            "type" : "VEC3"
        },
        {
            "bufferView" : 1,
            "componentType" : 5126,
            "count" : 3000,
            "type" : "VEC3"
        },
        {
            "bufferView" : 2,
            "componentType" : 5126,
            "count" : 3000,
            "type" : "VEC2"
        },
        {
            "bufferView" : 3,
            "componentType" : 5123,
            "count" : 8898,
            "type" : "SCALAR"
        },
        {
            "bufferView" : 4,
            "componentType" : 5126,
            "count" : 130,
            "max" : [
                3.8410768508911133,
                4.492033958435059,
                -4.363522052764893
            ],
            "min" : [
                -3.8410768508911133,
                -8.14610767364502,
                -6.62940788269043
            ],
            "type" : "VEC3"
        },
        {
            "bufferView" : 5,
            "componentType" : 5126,
            "count" : 130,
            "type" : "VEC3"
        },
        {
            "bufferView" : 6,
            "componentType" : 5126,
            "count" : 130,
            "type" : "VEC2"
        },
        {
            "bufferView" : 7,
            "componentType" : 5123,
            "count" : 345,
            "type" : "SCALAR"
        },
        {
            "bufferView" : 8,
            "componentType" : 5126,
            "count" : 46,
            "max" : [
                2.627652168273926,
                7.641895294189453,
                -3.2278640270233154
            ],
            "min" : [
                -2.627652168273926,
                7.641895294189453,
                -4.064302444458008
            ],
            "type" : "VEC3"
        },
        {
            "bufferView" : 9,
            "componentType" : 5126,
            "count" : 46,
            "type" : "VEC3"
        },
        {
            "bufferView" : 10,
            "componentType" : 5126,
            "count" : 46,
            "type" : "VEC2"
        },
        {
            "bufferView" : 11,
            "componentType" : 5123,
            "count" : 126,
            "type" : "SCALAR"
        },
        {
            "bufferView" : 12,
            "componentType" : 5126,
            "count" : 31,
            "max" : [
                3.1143150329589844,
                -7.658618927001953,
                -4.079745292663574
            ],
            "min" : [
                -3.1143150329589844,
                -7.80527400970459,
                -4.751273155212402
            ],
            "type" : "VEC3"
        },
        {
            "bufferView" : 13,
            "componentType" : 5126,
            "count" : 31,
            "type" : "VEC3"
        },
        {
            "bufferView" : 14,
            "componentType" : 5126,
            "count" : 31,
            "type" : "VEC2"
        },
        {
            "bufferView" : 15,
            "componentType" : 5123,
            "count" : 81,
            "type" : "SCALAR"
        },
        {
            "bufferView" : 16,
            "componentType" : 5126,
            "count" : 1684,
            "max" : [
                3.5583176612854004,
                6.565869331359863,
                0.03434431552886963
            ],
            "min" : [
                -3.5583176612854004,
                -6.997087478637695,
                -7.684391498565674
            ],
            "type" : "VEC3"
        },
        {
            "bufferView" : 17,
            "componentType" : 5126,
            "count" : 1684,
            "type" : "VEC3"
        },
        {
            "bufferView" : 18,
            "componentType" : 5126,
            "count" : 1684,
            "type" : "VEC2"
        },
        {
            "bufferView" : 19,
            "componentType" : 5123,
            "count" : 4680,
            "type" : "SCALAR"
        },
        {
            "bufferView" : 20,
            "componentType" : 5126,
            "count" : 48,
            "max" : [
                3.3757545948028564,
                2.048264503479004,
                -4.698739051818848
            ],
            "min" : [
                -3.3757545948028564,
                1.651471734046936,
                -4.751254081726074
            ],
            "type" : "VEC3"
        },
        {
            "bufferView" : 21,
            "componentType" : 5126,
            "count" : 48,
            "type" : "VEC3"
        },
        {
            "bufferView" : 22,
            "componentType" : 5126,
            "count" : 48,
            "type" : "VEC2"
        },
        {
            "bufferView" : 23,
            "componentType" : 5123,
            "count" : 72,
            "type" : "SCALAR"
        }
    ],
    "bufferViews" : [
        {
            "buffer" : 0,
            "byteLength" : 36000,
            "byteOffset" : 0
        },
        {
            "buffer" : 0,
            "byteLength" : 36000,
            "byteOffset" : 36000
        },
        {
            "buffer" : 0,
            "byteLength" : 24000,
            "byteOffset" : 72000
        },
        {
            "buffer" : 0,
            "byteLength" : 17796,
            "byteOffset" : 96000
        },
        {
            "buffer" : 0,
            "byteLength" : 1560,
            "byteOffset" : 113796
        },
        {
            "buffer" : 0,
            "byteLength" : 1560,
            "byteOffset" : 115356
        },
        {
            "buffer" : 0,
            "byteLength" : 1040,
            "byteOffset" : 116916
        },
        {
            "buffer" : 0,
            "byteLength" : 690,
            "byteOffset" : 117956
        },
        {
            "buffer" : 0,
            "byteLength" : 552,
            "byteOffset" : 118648
        },
        {
            "buffer" : 0,
            "byteLength" : 552,
            "byteOffset" : 119200
        },
        {
            "buffer" : 0,
            "byteLength" : 368,
            "byteOffset" : 119752
        },
        {
            "buffer" : 0,
            "byteLength" : 252,
            "byteOffset" : 120120
        },
        {
            "buffer" : 0,
            "byteLength" : 372,
            "byteOffset" : 120372
        },
        {
            "buffer" : 0,
            "byteLength" : 372,
            "byteOffset" : 120744
        },
        {
            "buffer" : 0,
            "byteLength" : 248,
            "byteOffset" : 121116
        },
        {
            "buffer" : 0,
            "byteLength" : 162,
            "byteOffset" : 121364
        },
        {
            "buffer" : 0,
            "byteLength" : 20208,
            "byteOffset" : 121528
        },
        {
            "buffer" : 0,
            "byteLength" : 20208,
            "byteOffset" : 141736
        },
        {
            "buffer" : 0,
            "byteLength" : 13472,
            "byteOffset" : 161944
        },
        {
            "buffer" : 0,
            "byteLength" : 9360,
            "byteOffset" : 175416
        },
        {
            "buffer" : 0,
            "byteLength" : 576,
            "byteOffset" : 184776
        },
        {
            "buffer" : 0,
            "byteLength" : 576,
            "byteOffset" : 185352
        },
        {
            "buffer" : 0,
            "byteLength" : 384,
            "byteOffset" : 185928
        },
        {
            "buffer" : 0,
            "byteLength" : 144,
            "byteOffset" : 186312
        }
    ],
    "buffers" : [
        {
            "byteLength" : 186456,
            "uri" : "car.bin"
        }
    ]
}
