<svg viewBox="0 0 26.05 18.54" xmlns="http://www.w3.org/2000/svg">
  <path class="body" d="M6.04.35C4.38.6.3 6.11.03 8.35c-.28 2.2 1.76 6.55 1.8 6.63v3.17c0 .21.17.39.38.39h2.2c.21 0 .38-.17.38-.39V15l8.15.02h.17l8.14-.02v3.15c0 .22.18.39.39.39h2.2c.2 0 .38-.17.38-.39v-3.18c.03-.07 2.08-4.42 1.8-6.63C25.74 6.11 21.67.6 20 .35 17.69.11 15.35 0 13.02 0S8.34.04 6.04.35z"/>
  <path class="details" d="M7.38 10.01a.42.42 0 0 0-.4.42.42.42 0 0 0 .41.42h11.2a.42.42 0 0 0 .42-.42.42.42 0 0 0-.41-.42H7.39a.42.42 0 0 0-.01 0zm15.19-1.96a1.1 1.1 0 0 0-1.1 1.1 1.1 1.1 0 0 0 1.1 1.1 1.1 1.1 0 0 0 1.1-1.1 1.1 1.1 0 0 0-1.1-1.1zm-19.16 0a1.1 1.1 0 0 0-1.1 1.1 1.1 1.1 0 0 0 1.1 1.1 1.1 1.1 0 0 0 1.1-1.1 1.1 1.1 0 0 0-1.1-1.1zM13 1.98c-2.1.01-6.33.06-6.78.24-.6.25-2.74 3.13-2.65 3.3.08.12 6.58.48 9.42.49 2.82-.01 9.24-.36 9.42-.5l-.12-.28c-.44-.74-2.02-2.8-2.52-3-.45-.2-4.68-.24-6.78-.25z" fill="#fff"/>
</svg>
